<mxfile host="65bd71144e">
    <diagram id="-_fvYeRZS9flYAgyYagP" name="Page-1">
        <mxGraphModel dx="2460" dy="712" grid="1" gridSize="10" guides="1" tooltips="1" connect="1" arrows="1" fold="1" page="1" pageScale="1" pageWidth="1100" pageHeight="850" background="#ffffff" math="0" shadow="0">
            <root>
                <mxCell id="0"/>
                <mxCell id="1" parent="0"/>
                <mxCell id="108" style="edgeStyle=none;html=1;fontSize=13;entryX=0.5;entryY=0;entryDx=0;entryDy=0;labelBackgroundColor=#FFFFFF;fontColor=#000000;" parent="1" source="109" target="168" edge="1">
                    <mxGeometry relative="1" as="geometry">
                        <mxPoint x="-580" y="172" as="targetPoint"/>
                    </mxGeometry>
                </mxCell>
                <mxCell id="109" value="Start" style="ellipse;whiteSpace=wrap;html=1;fontSize=13;labelBackgroundColor=#FFFFFF;fontColor=#000000;" parent="1" vertex="1">
                    <mxGeometry x="-640" y="90" width="120" height="40" as="geometry"/>
                </mxCell>
                <mxCell id="110" style="edgeStyle=none;html=1;entryX=0.5;entryY=0;entryDx=0;entryDy=0;fontSize=13;labelBackgroundColor=#FFFFFF;fontColor=#000000;" parent="1" target="115" edge="1">
                    <mxGeometry relative="1" as="geometry">
                        <mxPoint x="-580" y="212" as="sourcePoint"/>
                    </mxGeometry>
                </mxCell>
                <mxCell id="113" style="edgeStyle=none;html=1;fontSize=13;rounded=0;entryX=0.5;entryY=0;entryDx=0;entryDy=0;labelBackgroundColor=#FFFFFF;fontColor=#000000;" parent="1" source="115" target="126" edge="1">
                    <mxGeometry relative="1" as="geometry">
                        <mxPoint x="-460" y="572" as="targetPoint"/>
                        <Array as="points">
                            <mxPoint x="-580" y="332"/>
                        </Array>
                    </mxGeometry>
                </mxCell>
                <mxCell id="155" style="edgeStyle=none;rounded=0;html=1;labelBackgroundColor=#FFFFFF;fontColor=#000000;" parent="1" source="115" target="146" edge="1">
                    <mxGeometry relative="1" as="geometry"/>
                </mxCell>
                <mxCell id="115" value="&lt;span style=&quot;font-size: 10px;&quot;&gt;already have account?&lt;/span&gt;" style="rhombus;whiteSpace=wrap;html=1;fontSize=13;labelBackgroundColor=#FFFFFF;fontColor=#000000;" parent="1" vertex="1">
                    <mxGeometry x="-640" y="253" width="120" height="80" as="geometry"/>
                </mxCell>
                <mxCell id="116" value="Yes" style="text;html=1;align=center;verticalAlign=middle;resizable=0;points=[];autosize=1;strokeColor=none;fillColor=none;fontSize=13;labelBackgroundColor=#FFFFFF;fontColor=#000000;" parent="1" vertex="1">
                    <mxGeometry x="-580" y="337" width="40" height="30" as="geometry"/>
                </mxCell>
                <mxCell id="125" style="edgeStyle=none;rounded=0;html=1;fontSize=13;labelBackgroundColor=#FFFFFF;fontColor=#000000;entryX=0.5;entryY=0;entryDx=0;entryDy=0;" parent="1" source="126" target="131" edge="1">
                    <mxGeometry relative="1" as="geometry">
                        <mxPoint x="-580" y="692" as="targetPoint"/>
                        <Array as="points">
                            <mxPoint x="-580" y="704"/>
                            <mxPoint x="-580" y="730"/>
                        </Array>
                    </mxGeometry>
                </mxCell>
                <mxCell id="161" style="edgeStyle=none;rounded=0;html=1;entryX=-0.019;entryY=0.476;entryDx=0;entryDy=0;entryPerimeter=0;labelBackgroundColor=none;" parent="1" source="126" edge="1">
                    <mxGeometry relative="1" as="geometry">
                        <Array as="points">
                            <mxPoint x="-680" y="410"/>
                            <mxPoint x="-680" y="300"/>
                            <mxPoint x="-680" y="296"/>
                            <mxPoint x="-680" y="190"/>
                        </Array>
                        <mxPoint x="-621.52" y="191.03999999999996" as="targetPoint"/>
                    </mxGeometry>
                </mxCell>
                <mxCell id="126" value="Login" style="rhombus;whiteSpace=wrap;html=1;fontSize=13;labelBackgroundColor=#FFFFFF;fontColor=#000000;" parent="1" vertex="1">
                    <mxGeometry x="-620" y="372" width="80" height="80" as="geometry"/>
                </mxCell>
                <mxCell id="127" value="Search Property" style="shape=parallelogram;perimeter=parallelogramPerimeter;whiteSpace=wrap;html=1;fixedSize=1;fontSize=13;labelBackgroundColor=#FFFFFF;fontColor=#000000;" parent="1" vertex="1">
                    <mxGeometry x="-530" y="622" width="170" height="30" as="geometry"/>
                </mxCell>
                <mxCell id="128" value="Request Property" style="shape=parallelogram;perimeter=parallelogramPerimeter;whiteSpace=wrap;html=1;fixedSize=1;fontSize=13;labelBackgroundColor=default;fontColor=#000000;labelBorderColor=none;" parent="1" vertex="1">
                    <mxGeometry x="-530" y="582" width="169" height="30" as="geometry"/>
                </mxCell>
                <mxCell id="129" value="contact&amp;nbsp; property owner" style="shape=parallelogram;perimeter=parallelogramPerimeter;whiteSpace=wrap;html=1;fixedSize=1;fontSize=13;labelBackgroundColor=#FFFFFF;fontColor=#000000;" parent="1" vertex="1">
                    <mxGeometry x="-530" y="532" width="171" height="40" as="geometry"/>
                </mxCell>
                <mxCell id="130" value="view property" style="shape=parallelogram;perimeter=parallelogramPerimeter;whiteSpace=wrap;html=1;fixedSize=1;fontSize=13;labelBackgroundColor=#FFFFFF;fontColor=#000000;" parent="1" vertex="1">
                    <mxGeometry x="-530" y="484" width="160" height="30" as="geometry"/>
                </mxCell>
                <mxCell id="131" value="stop" style="ellipse;whiteSpace=wrap;html=1;fontSize=13;labelBackgroundColor=#FFFFFF;fontColor=#000000;" parent="1" vertex="1">
                    <mxGeometry x="-640" y="730" width="120" height="30" as="geometry"/>
                </mxCell>
                <mxCell id="133" value="Yes" style="text;html=1;align=center;verticalAlign=middle;resizable=0;points=[];autosize=1;strokeColor=none;fillColor=none;fontSize=13;labelBackgroundColor=#FFFFFF;fontColor=#000000;" parent="1" vertex="1">
                    <mxGeometry x="-590" y="457" width="40" height="30" as="geometry"/>
                </mxCell>
                <mxCell id="134" value="" style="endArrow=classic;html=1;entryX=0;entryY=0.5;entryDx=0;entryDy=0;fontSize=13;labelBackgroundColor=#FFFFFF;fontColor=#000000;" parent="1" target="130" edge="1">
                    <mxGeometry width="50" height="50" relative="1" as="geometry">
                        <mxPoint x="-580" y="497" as="sourcePoint"/>
                        <mxPoint x="-530" y="472" as="targetPoint"/>
                    </mxGeometry>
                </mxCell>
                <mxCell id="135" value="" style="endArrow=classic;html=1;fontSize=13;labelBackgroundColor=#FFFFFF;fontColor=#000000;" parent="1" target="129" edge="1">
                    <mxGeometry width="50" height="50" relative="1" as="geometry">
                        <mxPoint x="-580" y="552" as="sourcePoint"/>
                        <mxPoint x="-520" y="551.51" as="targetPoint"/>
                    </mxGeometry>
                </mxCell>
                <mxCell id="136" value="" style="endArrow=classic;html=1;fontSize=13;labelBackgroundColor=#FFFFFF;fontColor=#000000;" parent="1" target="128" edge="1">
                    <mxGeometry width="50" height="50" relative="1" as="geometry">
                        <mxPoint x="-580" y="597" as="sourcePoint"/>
                        <mxPoint x="-520" y="581.76" as="targetPoint"/>
                    </mxGeometry>
                </mxCell>
                <mxCell id="137" value="" style="endArrow=classic;html=1;fontSize=13;labelBackgroundColor=#FFFFFF;fontColor=#000000;" parent="1" target="127" edge="1">
                    <mxGeometry width="50" height="50" relative="1" as="geometry">
                        <mxPoint x="-580" y="637" as="sourcePoint"/>
                        <mxPoint x="-520" y="621.76" as="targetPoint"/>
                    </mxGeometry>
                </mxCell>
                <mxCell id="144" value="NO" style="text;html=1;align=center;verticalAlign=middle;resizable=0;points=[];autosize=1;strokeColor=none;fillColor=none;fontSize=13;labelBackgroundColor=#FFFFFF;fontColor=#000000;" parent="1" vertex="1">
                    <mxGeometry x="-530" y="269" width="40" height="30" as="geometry"/>
                </mxCell>
                <mxCell id="145" style="edgeStyle=none;rounded=0;html=1;entryX=0.5;entryY=0;entryDx=0;entryDy=0;fontSize=13;labelBackgroundColor=#FFFFFF;fontColor=#000000;" parent="1" source="146" target="148" edge="1">
                    <mxGeometry relative="1" as="geometry"/>
                </mxCell>
                <mxCell id="146" value="Fill registration form" style="rounded=0;whiteSpace=wrap;html=1;fontSize=13;labelBackgroundColor=#FFFFFF;fontColor=#000000;" parent="1" vertex="1">
                    <mxGeometry x="-464" y="269" width="80" height="48" as="geometry"/>
                </mxCell>
                <mxCell id="151" style="edgeStyle=none;html=1;labelBackgroundColor=#FFFFFF;fontColor=#000000;" parent="1" source="148" target="126" edge="1">
                    <mxGeometry relative="1" as="geometry"/>
                </mxCell>
                <mxCell id="153" style="edgeStyle=none;html=1;rounded=0;labelBackgroundColor=#FFFFFF;fontColor=#000000;" parent="1" source="148" edge="1">
                    <mxGeometry relative="1" as="geometry">
                        <mxPoint x="-382" y="292" as="targetPoint"/>
                        <Array as="points">
                            <mxPoint x="-339" y="412"/>
                            <mxPoint x="-339" y="292"/>
                        </Array>
                    </mxGeometry>
                </mxCell>
                <mxCell id="148" value="Valid?" style="rhombus;whiteSpace=wrap;html=1;fontSize=13;labelBackgroundColor=#FFFFFF;fontColor=#000000;" parent="1" vertex="1">
                    <mxGeometry x="-464" y="372" width="80" height="80" as="geometry"/>
                </mxCell>
                <mxCell id="152" value="Yes" style="text;html=1;align=center;verticalAlign=middle;resizable=0;points=[];autosize=1;strokeColor=none;fillColor=none;fontSize=13;labelBackgroundColor=#FFFFFF;fontColor=#000000;" parent="1" vertex="1">
                    <mxGeometry x="-522" y="379" width="40" height="30" as="geometry"/>
                </mxCell>
                <mxCell id="163" value="NO" style="text;html=1;align=center;verticalAlign=middle;resizable=0;points=[];autosize=1;strokeColor=none;fillColor=none;labelBackgroundColor=none;" parent="1" vertex="1">
                    <mxGeometry x="-670" y="385" width="40" height="30" as="geometry"/>
                </mxCell>
                <mxCell id="164" value="NO" style="text;html=1;align=center;verticalAlign=middle;resizable=0;points=[];autosize=1;strokeColor=none;fillColor=none;labelBackgroundColor=#FFFFFF;fontColor=#000000;" parent="1" vertex="1">
                    <mxGeometry x="-390" y="385" width="40" height="30" as="geometry"/>
                </mxCell>
                <mxCell id="166" value="add property" style="shape=parallelogram;perimeter=parallelogramPerimeter;whiteSpace=wrap;html=1;fixedSize=1;fontSize=13;labelBackgroundColor=#FFFFFF;fontColor=#000000;" parent="1" vertex="1">
                    <mxGeometry x="-530" y="670" width="160" height="30" as="geometry"/>
                </mxCell>
                <mxCell id="167" value="" style="endArrow=classic;html=1;fontSize=13;labelBackgroundColor=#FFFFFF;fontColor=#000000;entryX=0;entryY=0.75;entryDx=0;entryDy=0;" parent="1" target="166" edge="1">
                    <mxGeometry width="50" height="50" relative="1" as="geometry">
                        <mxPoint x="-580" y="690" as="sourcePoint"/>
                        <mxPoint x="-510" y="647" as="targetPoint"/>
                        <Array as="points"/>
                    </mxGeometry>
                </mxCell>
                <mxCell id="168" value="User login portal" style="rounded=0;whiteSpace=wrap;html=1;fontSize=13;labelBackgroundColor=none;" parent="1" vertex="1">
                    <mxGeometry x="-620" y="178" width="80" height="40" as="geometry"/>
                </mxCell>
            </root>
        </mxGraphModel>
    </diagram>
</mxfile>